<?xml version="1.0" encoding="utf-8"?>
<!-- Generator: Adobe Illustrator 18.0.0, SVG Export Plug-In . SVG Version: 6.00 Build 0)  -->
<!DOCTYPE svg PUBLIC "-//W3C//DTD SVG 1.1//EN" "http://www.w3.org/Graphics/SVG/1.1/DTD/svg11.dtd">
<svg version="1.1" id="Layer_1" xmlns="http://www.w3.org/2000/svg" xmlns:xlink="http://www.w3.org/1999/xlink" x="0px" y="0px"
	 width="113.2px" height="30px" viewBox="0 0 113.2 30" enable-background="new 0 0 113.2 30" xml:space="preserve">
<g>
	<path fill="#262626" d="M0,30v-1l12,0c5,0,7.1-1.8,7.1-6.1v-2.3c0-3.8-1.5-5.6-5.2-6l-0.2,0v-1.2l0.2,0c2.8-0.6,4.1-2.1,4.1-5.1v-2
		c0-3.8-2-5.3-7.1-5.3H1v13.7H0V0l10.9,0c5.6,0,8,1.9,8,6.3v2c0,3-1.2,4.8-3.6,5.6c3.3,0.8,4.7,2.8,4.7,6.7V23c0,4.9-2.4,7-8,7H0z"
		/>
	<polygon fill="#262626" points="91.3,30 77.7,0.9 75.6,0.9 75.6,30 71.9,30 58.3,0.9 54.7,0.9 41.1,30 24.8,30 24.8,0 25.7,0 
		25.7,29.1 40.5,29.1 54,0 59,0 72.5,29.1 74.6,29.1 74.6,0 78.4,0 92,29.1 94.1,29.1 94.1,0 95.1,0 95.1,30 	"/>
	<polygon fill="#262626" points="111.9,30 100.5,15.6 100.4,15.4 100.4,14.8 111.4,0 112.5,0 101.3,15.1 113.2,30 	"/>
</g>
</svg>
